<?xml version="1.0" encoding="UTF-8"?>
<svg width="512" height="512" enable-background="new 0 0 24 24" version="1.1" viewBox="0 0 24 24" xmlns="http://www.w3.org/2000/svg" xmlns:cc="http://creativecommons.org/ns#" xmlns:dc="http://purl.org/dc/elements/1.1/" xmlns:rdf="http://www.w3.org/1999/02/22-rdf-syntax-ns#">
<rect x="4.2458" y="3.4322" width="16.602" height="15.61" fill="#fffffe" stroke="#fff" stroke-width=".09375"/>
<path d="m21.25 0h-18.5c-1.517 0-2.75 1.233-2.75 2.75v18.5c0 1.517 1.233 2.75 2.75 2.75h18.5c1.517 0 2.75-1.233 2.75-2.75v-18.5c0-1.517-1.233-2.75-2.75-2.75zm-4 13h-4.25v4.25c0 0.552-0.447 1-1 1s-1-0.448-1-1v-4.25h-4.25c-0.553 0-1-0.448-1-1s0.447-1 1-1h4.25v-4.25c0-0.552 0.447-1 1-1s1 0.448 1 1v4.25h4.25c0.553 0 1 0.448 1 1s-0.447 1-1 1z"/>
</svg>
