<?xml version="1.0"?><svg fill="#000000" xmlns="http://www.w3.org/2000/svg"  viewBox="0 0 24 24" width="24px" height="24px">    <path d="M 11.5 2 C 8.467 2 6 4.468 6 7.5 C 6 8.027 6.07975 8.5345781 6.21875 9.0175781 C 6.31275 9.0125781 6.407 9 6.5 9 C 7.204 9 7.8871562 9.1228438 8.5351562 9.3398438 C 8.2021562 8.8038438 8 8.176 8 7.5 C 8 5.57 9.57 4 11.5 4 C 13.43 4 15 5.57 15 7.5 C 15 8.193 14.790406 8.8358594 14.441406 9.3808594 C 15.047406 9.1438594 15.724 9 16.5 9 C 16.596 9 16.688203 9.0096719 16.783203 9.0136719 C 16.921203 8.5326719 17 8.026 17 7.5 C 17 4.468 14.533 2 11.5 2 z M 6.5 10 C 6.047 10 5.6095 10.060063 5.1875 10.164062 C 5.3675 10.298063 5.5331094 10.452531 5.6621094 10.644531 C 5.9501094 11.074531 6.0427031 11.577688 5.9707031 12.054688 C 6.1447031 12.027687 6.319 12 6.5 12 C 8.13 12 9.4919062 13.125719 9.8789062 14.636719 C 9.9219062 14.556719 9.9599062 14.48925 10.003906 14.40625 C 10.333906 13.78125 10.685891 13.116609 11.087891 12.474609 C 10.101891 10.985609 8.415 10 6.5 10 z M 16.5 10 C 14.95 10 13.714806 10.764723 12.851562 11.746094 C 11.988321 12.727464 11.393104 13.914608 10.802734 15.033203 C 10.212365 16.151798 9.6273923 17.199346 8.9550781 17.904297 C 8.2827639 18.609248 7.6022727 19 6.5 19 C 4.5555768 19 3 17.444423 3 15.5 C 3 14.279316 3.6183706 13.217691 4.5566406 12.589844 A 1.0002506 1.0002506 0 0 0 3.4433594 10.927734 C 1.9696294 11.913887 1 13.600684 1 15.5 C 1 18.525577 3.4744232 21 6.5 21 C 8.1477273 21 9.467236 20.265752 10.404297 19.283203 C 11.341358 18.300654 11.975135 17.098202 12.572266 15.966797 C 13.169396 14.835392 13.73043 13.772536 14.351562 13.066406 C 14.972696 12.360277 15.55 12 16.5 12 C 18.444423 12 20 13.555577 20 15.5 L 20 16 A 1.0001 1.0001 0 1 0 22 16 L 22 15.5 C 22 12.474423 19.525577 10 16.5 10 z M 21 19 A 1 1 0 0 0 20 20 A 1 1 0 0 0 21 21 A 1 1 0 0 0 22 20 A 1 1 0 0 0 21 19 z"/></svg>